<svg width="16" height="16" viewBox="0 0 16 16" fill="none" xmlns="http://www.w3.org/2000/svg">
<path d="M6.8947 4.9474C7.4975 4.9906 8.084 5.1626 8.6144 5.4523C9.1449 5.7421 9.6068 6.1431 9.9689 6.6271C10.2012 6.9378 10.138 7.3781 9.8273 7.6105C9.5166 7.8428 9.0763 7.7786 8.8439 7.4679C8.6026 7.1454 8.2941 6.8789 7.9406 6.6857C7.587 6.4925 7.196 6.3776 6.7941 6.3488C6.3922 6.32 5.989 6.3779 5.6115 6.5187C5.2339 6.6596 4.8905 6.8802 4.6056 7.1652L2.5031 9.2677C1.99377 9.7972 1.71164 10.5056 1.71793 11.2404C1.72434 11.9772 2.0201 12.6822 2.5412 13.2033C3.0622 13.7243 3.7672 14.0201 4.5041 14.0265C5.2389 14.0328 5.9472 13.7507 6.4767 13.2414L7.673 12.0451C7.9474 11.7707 8.3928 11.7707 8.6672 12.0451C8.9411 12.3194 8.9411 12.7639 8.6672 13.0382L7.465 14.2394L7.4562 14.2482C6.6612 15.016 5.5966 15.4414 4.4914 15.4318C3.3861 15.4222 2.3286 14.979 1.54703 14.1974C0.765489 13.4159 0.322299 12.3583 0.312659 11.2531C0.303059 10.1479 0.728439 9.0833 1.49625 8.2882L1.50407 8.2795L3.6125 6.1711C4.0397 5.7438 4.5541 5.4135 5.1203 5.2023C5.6866 4.991 6.2918 4.9042 6.8947 4.9474ZM11.5109 0.0685174C12.6161 0.0781174 13.6737 0.521388 14.4552 1.30289C15.2368 2.0844 15.68 3.142 15.6896 4.2472C15.6992 5.3523 15.2746 6.4171 14.507 7.2121L14.4982 7.2209L12.3908 9.3293C11.9634 9.7568 11.4483 10.0867 10.882 10.298C10.3157 10.5092 9.7104 10.5961 9.1076 10.5529C8.5048 10.5097 7.9182 10.3378 7.3879 10.048C6.8574 9.7582 6.3954 9.3572 6.0334 8.8732C5.8012 8.5625 5.8643 8.1222 6.175 7.8898C6.4857 7.6574 6.9259 7.7217 7.1584 8.0324C7.3997 8.355 7.7081 8.6214 8.0617 8.8146C8.4153 9.0078 8.8063 9.1227 9.2082 9.1515C9.61 9.1803 10.0133 9.1223 10.3908 8.9816C10.7684 8.8408 11.1117 8.6201 11.3966 8.3351L13.5002 6.2326C14.0095 5.7031 14.2906 4.9947 14.2843 4.2599C14.2779 3.5232 13.9829 2.818 13.4621 2.297C12.9411 1.77607 12.2359 1.48029 11.4992 1.47379C10.764 1.4674 10.0552 1.74923 9.5255 2.2589L8.3205 3.4572C8.0453 3.7303 7.6008 3.7291 7.3273 3.4543C7.0537 3.1791 7.0551 2.7337 7.3302 2.4601L8.5382 1.25895L8.5461 1.25211C9.3411 0.484257 10.4057 0.0589474 11.5109 0.0685174Z" fill="#fff"/>
</svg>
