<svg width="16" height="13" viewBox="0 0 16 13" fill="none" xmlns="http://www.w3.org/2000/svg">
<path fill-rule="evenodd" clip-rule="evenodd" d="M11.7947 12.562C11.9931 12.7025 12.2487 12.7376 12.4766 12.6513C12.7045 12.5645 12.872 12.3698 12.9225 12.1339C13.4578 9.61836 14.7562 3.25121 15.2435 0.962925C15.2804 0.790457 15.2188 0.611214 15.0833 0.49603C14.9478 0.380845 14.7599 0.347584 14.5924 0.409795C12.0097 1.36576 4.05582 4.35008 0.804797 5.55304C0.598451 5.62942 0.464173 5.82776 0.470948 6.04519C0.47834 6.26324 0.624938 6.45234 0.836211 6.51578C2.29418 6.95188 4.20796 7.5586 4.20796 7.5586C4.20796 7.5586 5.10233 10.2596 5.56861 11.6332C5.62713 11.8056 5.76202 11.9411 5.94003 11.9879C6.11743 12.0341 6.30715 11.9855 6.43958 11.8604C7.18858 11.1533 8.34658 10.06 8.34658 10.06C8.34658 10.06 10.5468 11.6732 11.7947 12.562ZM5.01302 7.21736L6.04721 10.6285L6.27696 8.46837C6.27696 8.46837 10.2727 4.8644 12.5505 2.81018C12.617 2.74982 12.6263 2.6488 12.5708 2.57797C12.516 2.50713 12.415 2.4905 12.3392 2.53854C9.69922 4.22442 5.01302 7.21736 5.01302 7.21736Z" fill="#fff"/>
</svg>
