<svg width="17" height="18" viewBox="0 0 17 18" fill="none" xmlns="http://www.w3.org/2000/svg">
<path d="M0.282715 17.4258L1.42559 13.1637C0.720352 11.9161 0.349783 10.5018 0.350461 9.0516C0.352493 4.51766 3.96673 0.828125 8.40746 0.828125C10.5625 0.828817 12.5853 1.68567 14.1069 3.24033C15.6278 4.79498 16.4651 6.86139 16.4645 9.05921C16.4624 13.5938 12.8482 17.2834 8.40746 17.2834C7.05932 17.2827 5.73083 16.9376 4.55408 16.282L0.282715 17.4258ZM4.7519 14.793C5.88732 15.4811 6.97125 15.8933 8.40475 15.894C12.0955 15.894 15.1021 12.8276 15.1041 9.05782C15.1055 5.28046 12.1132 2.21818 8.41017 2.2168C4.71667 2.2168 1.71215 5.28323 1.7108 9.05229C1.71012 10.591 2.15182 11.7432 2.89364 12.9486L2.21686 15.4715L4.7519 14.793ZM12.4661 11.0143C12.416 10.9285 12.2818 10.8773 12.08 10.7743C11.8788 10.6713 10.889 10.174 10.704 10.1056C10.5198 10.0371 10.3856 10.0025 10.2508 10.2086C10.1167 10.414 9.73054 10.8773 9.61334 11.0143C9.49614 11.1512 9.37826 11.1685 9.17706 11.0655C8.97585 10.9624 8.32685 10.7459 7.55793 10.0454C6.95974 9.50043 6.55529 8.82753 6.43809 8.62144C6.32089 8.41604 6.4259 8.3047 6.52616 8.20235C6.61694 8.11037 6.72737 7.96237 6.82831 7.84204C6.93061 7.72309 6.9638 7.63734 7.03155 7.49971C7.09862 7.36278 7.06542 7.24245 7.01461 7.1394C6.9638 7.03705 6.56139 6.02528 6.39406 5.6138C6.23011 5.21338 6.06414 5.26732 5.94084 5.2611L5.55469 5.25418C5.42055 5.25418 5.20241 5.30536 5.01814 5.51145C4.83387 5.71753 4.31359 6.21408 4.31359 7.22585C4.31359 8.23762 5.03508 9.21481 5.13534 9.35174C5.23628 9.48867 6.55462 11.5648 8.57412 12.4548C9.05443 12.6664 9.42975 12.793 9.72173 12.8877C10.2041 13.044 10.6431 13.0219 10.9899 12.9693C11.3768 12.9106 12.1809 12.4721 12.3489 11.9922C12.5169 11.5115 12.5169 11.1 12.4661 11.0143Z" fill="#fff"/>
</svg>
